# xmcd CD database file
#
# Track frame offsets:
#	150
#	24438
#	40895
#	71273
#	89920
#	114388
#	140565
#	166205
#	190108
#	204230
#
# Disc length: 3210 seconds
#
# Revision: 2
# Processed by: cddbd v1.5.2PL0 Copyright (c) Steve Scherf et al.
# Submitted via: CDex 1.70beta3
#
DISCID=830c880a
DTITLE=The Willard - Reptile House
DYEAR=1991
DGENRE=Rock
TTITLE0=Transylvanian Rose
TTITLE1=Reptile House Blues
TTITLE2=Ain't Rolling Stone
TTITLE3=Dear Jane
TTITLE4=Kill Machine(Seventeen)
TTITLE5=Mr.Jones Calling
TTITLE6=Tender rain Kept A Fallin’
TTITLE7=High Life
TTITLE8=Speed Addict
TTITLE9=Hate For Jesus
EXTD=YEAR: 1991
EXTT0=
EXTT1=
EXTT2=
EXTT3=
EXTT4=
EXTT5=
EXTT6=
EXTT7=
EXTT8=
EXTT9=
PLAYORDER=
